# xmcd
#
# Track frame offsets:
#	150
#	11872
#	28947
#	39242
#	53670
#	65060
#	79550
#	92375
#	113545
#	127350
#	148902
#
# Disc length: 2124 seconds
#
# Revision: 0
# Processed by: cddbd v1.4PL0 Copyright (c) Steve Scherf et al.
# Submitted via: EasyCDDAExtractor 4.6.0.1
#
DISCID=93084a0b
DTITLE=New Road - What The Lord Gave Us
DYEAR=2001
DGENRE=Bluegrass
TTITLE0=Absent From The Body
TTITLE1=God Sees Me
TTITLE2=Come On In
TTITLE3=Song For The Bridegroom
TTITLE4=Just One More Time
TTITLE5=Jesus Can Do Anything
TTITLE6=I'll Be Ready
TTITLE7=The Tomb Is Empty
TTITLE8=This World Is Not My Home
TTITLE9=All The Way To Calvary
TTITLE10=Story Of Jesus
EXTD=
EXTT0=
EXTT1=
EXTT2=
EXTT3=
EXTT4=
EXTT5=
EXTT6=
EXTT7=
EXTT8=
EXTT9=
EXTT10=
PLAYORDER=
